<svg width="108" height="94" viewBox="0 0 108 94" fill="none" xmlns="http://www.w3.org/2000/svg">
<path d="M9.38342 42.1934H103.133C104.377 42.1934 105.569 42.6873 106.448 43.5664C107.327 44.4454 107.821 45.6377 107.821 46.8809C107.821 48.1241 107.327 49.3164 106.448 50.1955C105.569 51.0746 104.377 51.5684 103.133 51.5684H9.38342C8.14022 51.5684 6.94794 51.0746 6.06886 50.1955C5.18978 49.3164 4.69592 48.1241 4.69592 46.8809C4.69592 45.6377 5.18978 44.4454 6.06886 43.5664C6.94794 42.6873 8.14022 42.1934 9.38342 42.1934Z" fill="#8D8D8D"/>
<path d="M11.324 46.8809L50.2021 85.7497C51.0823 86.6299 51.5768 87.8236 51.5768 89.0684C51.5768 90.3132 51.0823 91.507 50.2021 92.3872C49.3219 93.2674 48.1282 93.7618 46.8834 93.7618C45.6386 93.7618 44.4448 93.2674 43.5646 92.3872L1.37713 50.1997C0.940598 49.7642 0.59426 49.247 0.35795 48.6775C0.121639 48.108 0 47.4975 0 46.8809C0 46.2644 0.121639 45.6538 0.35795 45.0844C0.59426 44.5149 0.940598 43.9976 1.37713 43.5622L43.5646 1.37467C44.4448 0.494483 45.6386 0 46.8834 0C48.1282 0 49.3219 0.494483 50.2021 1.37467C51.0823 2.25486 51.5768 3.44865 51.5768 4.69342C51.5768 5.93819 51.0823 7.13198 50.2021 8.01217L11.324 46.8809Z" fill="#190E05"/>
</svg>
