<svg width="135" height="122" viewBox="0 0 135 122" fill="none" xmlns="http://www.w3.org/2000/svg">
<path d="M117.188 112.5C117.188 114.354 116.638 116.167 115.608 117.708C114.577 119.25 113.113 120.452 111.4 121.161C109.687 121.871 107.802 122.057 105.984 121.695C104.165 121.333 102.494 120.44 101.183 119.129C99.8723 117.818 98.9794 116.148 98.6176 114.329C98.2559 112.51 98.4416 110.625 99.1511 108.912C99.8607 107.199 101.062 105.735 102.604 104.705C104.146 103.675 105.958 103.125 107.812 103.125C110.299 103.125 112.683 104.113 114.442 105.871C116.2 107.629 117.188 110.014 117.188 112.5ZM46.875 103.125C45.0208 103.125 43.2082 103.675 41.6665 104.705C40.1248 105.735 38.9232 107.199 38.2136 108.912C37.5041 110.625 37.3184 112.51 37.6801 114.329C38.0419 116.148 38.9348 117.818 40.2459 119.129C41.557 120.44 43.2275 121.333 45.046 121.695C46.8646 122.057 48.7496 121.871 50.4627 121.161C52.1757 120.452 53.6399 119.25 54.67 117.708C55.7002 116.167 56.25 114.354 56.25 112.5C56.25 110.014 55.2623 107.629 53.5041 105.871C51.746 104.113 49.3614 103.125 46.875 103.125ZM133.652 25.3125C133.213 24.7337 132.646 24.2636 131.996 23.9385C131.345 23.6134 130.629 23.442 129.902 23.4375H28.3008L23.5547 6.79687C22.9856 4.84188 21.7992 3.12348 20.1729 1.89842C18.5465 0.673352 16.5674 0.00738095 14.5312 0H4.6875C3.4443 0 2.25201 0.49386 1.37294 1.37294C0.49386 2.25201 0 3.4443 0 4.6875C0 5.9307 0.49386 7.12299 1.37294 8.00206C2.25201 8.88114 3.4443 9.375 4.6875 9.375H14.5312L20.2734 29.3555V29.4727L35.7422 83.5547C36.5916 86.4896 38.37 89.0699 40.8105 90.9082C43.251 92.7465 46.222 93.7437 49.2773 93.75H105.41C108.466 93.7437 111.436 92.7465 113.877 90.9082C116.317 89.0699 118.096 86.4896 118.945 83.5547L134.414 29.4141C134.612 28.718 134.647 27.9855 134.515 27.2739C134.382 26.5623 134.087 25.891 133.652 25.3125Z" fill="white"/>
<rect x="79" y="53" width="30" height="8" rx="2" fill="#361413"/>
</svg>
